<?xml version="1.0" encoding="UTF-8"?>
<svg id="Layer_1" data-name="Layer 1" xmlns="http://www.w3.org/2000/svg" viewBox="0 0 110 100">
  <defs>
    <style>
      .cls-1 {
        fill: #d92094;
      }
    </style>
  </defs>
  <path d="M9.66,99.86l-4.82-2.64c.26-.47,6.39-11.48,17.93-11.48h17.59c.48,0,11.76.13,17.94,11.48l-4.83,2.63c-4.57-8.41-12.77-8.6-13.12-8.61h-17.57c-8.25,0-13.06,8.53-13.11,8.62Z"/>
  <path d="M31.43,79.33c-9,0-16.33-7.32-16.33-16.33s7.32-16.33,16.33-16.33,16.33,7.32,16.33,16.33-7.32,16.33-16.33,16.33ZM31.43,52.17c-5.97,0-10.83,4.86-10.83,10.83s4.86,10.83,10.83,10.83,10.83-4.86,10.83-10.83-4.86-10.83-10.83-10.83Z"/>
  <rect x="28.68" y="75.55" width="5.5" height="10.44"/>
  <g>
    <rect class="cls-1" x="29.18" y="3.29" width="4.5" height="38.92"/>
    <polygon class="cls-1" points="25.48 12.42 22.3 9.24 31.43 .1 40.57 9.24 37.38 12.42 31.43 6.47 25.48 12.42"/>
  </g>
  <g>
    <polygon points="106.97 83.75 53.34 83.75 53.34 78.25 101.47 78.25 101.47 13 44.53 13 44.53 7.5 106.97 7.5 106.97 83.75"/>
    <polygon points="24.15 33.49 5.07 33.49 5.07 7.5 18.3 7.5 18.3 13 10.57 13 10.57 27.99 24.15 27.99 24.15 33.49"/>
    <rect x="38.69" y="27.99" width="64.16" height="5.5"/>
    <circle class="cls-1" cx="91.75" cy="20.64" r="2.92"/>
    <circle class="cls-1" cx="80.79" cy="20.64" r="2.92"/>
  </g>
</svg>