<?xml version="1.0" encoding="UTF-8"?>
<svg id="Layer_1" data-name="Layer 1" xmlns="http://www.w3.org/2000/svg" xmlns:xlink="http://www.w3.org/1999/xlink" viewBox="0 0 110 100">
  <defs>
    <style>
      .cls-1 {
        fill: url(#linear-gradient);
      }
    </style>
    <linearGradient id="linear-gradient" x1="42.68" y1="29.03" x2="110" y2="29.03" gradientUnits="userSpaceOnUse">
      <stop offset="0" stop-color="#ed779e"/>
      <stop offset="1" stop-color="#eda950"/>
    </linearGradient>
  </defs>
  <path class="cls-1" d="M53.22,58.05v-16.01h-10.54V0h67.32v42.05h-24.64l-32.14,16.01ZM47.68,37.04h10.54v12.93l25.96-12.93h20.81V5.01h-57.31v32.04Z"/>
  <g>
    <path d="M5.27,96.58l-5.27-2.88c.29-.53,7.19-12.91,20.17-12.91h19.87c.54,0,13.23.15,20.17,12.92l-5.28,2.87c-5.2-9.56-14.52-9.78-14.92-9.78h-19.85c-9.38,0-14.85,9.69-14.9,9.79Z"/>
    <path d="M29.51,75.12c-9.05,0-16.41-7.36-16.41-16.41s7.36-16.41,16.41-16.41,16.41,7.36,16.41,16.41-7.36,16.41-16.41,16.41ZM29.51,48.3c-5.74,0-10.41,4.67-10.41,10.41s4.67,10.41,10.41,10.41,10.41-4.67,10.41-10.41-4.67-10.41-10.41-10.41Z"/>
    <rect x="26.5" y="71.11" width="6.01" height="10.31"/>
    <path d="M85.27,99.89c-3.46-6.33-9.63-6.49-9.89-6.5h-12.68c-2.65,0-5.18.99-7.13,2.79l-3.39-3.68c2.88-2.65,6.61-4.11,10.53-4.11h12.7c.38,0,9.35.1,14.26,9.1l-4.39,2.4Z"/>
    <path d="M68.11,84.95c-6.47,0-11.73-5.26-11.73-11.73s5.26-11.73,11.73-11.73,11.73,5.26,11.73,11.73-5.26,11.73-11.73,11.73ZM68.11,66.5c-3.71,0-6.72,3.02-6.72,6.72s3.02,6.72,6.72,6.72,6.72-3.02,6.72-6.72-3.02-6.72-6.72-6.72Z"/>
    <rect x="65.61" y="82.06" width="5.01" height="7.1"/>
  </g>
  <polygon points="62.79 31.83 51.99 21.02 62.79 10.22 66.33 13.76 59.07 21.02 66.33 28.29 62.79 31.83"/>
  <polygon points="89.52 31.83 85.98 28.29 93.25 21.02 85.98 13.76 89.52 10.22 100.33 21.02 89.52 31.83"/>
  <rect x="67.21" y="18.52" width="17.89" height="5" transform="translate(7.44 60.01) rotate(-45)"/>
</svg>