<?xml version="1.0" encoding="UTF-8"?>
<svg id="Layer_1" data-name="Layer 1" xmlns="http://www.w3.org/2000/svg" viewBox="0 0 110 100">
  <defs>
    <style>
      .cls-1 {
        isolation: isolate;
        opacity: .8;
      }

      .cls-1, .cls-2 {
        fill: #00ceff;
      }
    </style>
  </defs>
  <polygon points="14.51 34.56 10.01 34.56 10.01 1.57 90.45 1.57 90.45 12.47 85.95 12.47 85.95 6.07 14.51 6.07 14.51 34.56"/>
  <polygon points="99.69 60.24 95.19 60.24 95.19 14.66 37.34 14.66 26.81 25.39 26.81 34.56 22.31 34.56 22.31 23.55 35.45 10.16 99.69 10.16 99.69 60.24"/>
  <polygon points="40.99 29.1 24.77 29.1 24.77 25.1 36.99 25.1 36.99 13.09 40.99 13.09 40.99 29.1"/>
  <polygon points="67.66 97.56 2.93 97.56 2.93 32.31 33.7 32.31 38.77 42.54 85.87 42.55 85.87 60.24 81.37 60.24 81.37 47.04 35.98 47.03 30.91 36.81 7.43 36.81 7.43 93.06 67.66 93.06 67.66 97.56"/>
  <g>
    <path class="cls-2" d="M76.6,87.3h-4.97v11.7h11.64v-5.03h-6.67v-6.67ZM101.65,87.36v6.63h-6.67v5.01h11.64v-11.7h-5.03l.05.05h0ZM71.65,75.66h5.03l-.07-.05v-6.63h6.67v-5.01h-11.64l.02,11.69h0ZM94.98,63.97v5.01h6.67v6.67h4.97v-11.69l-11.64.02Z"/>
    <path class="cls-1" d="M94.33,75.66l-6.67-6.67h7.32v-5.03h-11.7v5.01l6.67,6.67,4.37.02ZM88.3,87.3h-4.37l5.54,5.52,1.1,1.15h-7.27v5.03h11.7v-5.07l-3.33-3.28s-3.36-3.35-3.36-3.35ZM101.65,75.66v7.27l-1.15-1.15-5.52-5.52v4.41l3.28,3.28,3.33,3.33h5.03v-11.63h-4.97ZM83.29,82.28l-6.63-6.63h-5.02v11.65h4.97v-7.27l6.67,6.67.02-4.42Z"/>
  </g>
  <rect x="61" y="20.78" width="28.76" height="3.5"/>
  <rect x="61" y="26.79" width="28.76" height="3.5"/>
  <rect x="61" y="32.81" width="28.76" height="3.5"/>
  <path d="M47.93,88.76H12.38v-17.17h35.55v17.17ZM15.88,85.26h28.55v-10.17H15.88v10.17Z"/>
</svg>